<?xml version="1.0" standalone="no"?>
<!DOCTYPE svg PUBLIC "-//W3C//DTD SVG 20010904//EN"
 "http://www.w3.org/TR/2001/REC-SVG-20010904/DTD/svg10.dtd">
<svg version="1.0" xmlns="http://www.w3.org/2000/svg"
 width="524.800000pt" height="524.800000pt" viewBox="0 0 524.800000 524.800000"
 preserveAspectRatio="xMidYMid meet">
<metadata>
Created by potrace 1.13, written by Peter Selinger 2001-2015
</metadata>
<g transform="translate(0.000000,524.800000) scale(0.080000,-0.080000)"
fill="#000000" stroke="none">
<path d="M5110 5319 c-30 -4 -75 -15 -99 -23 -24 -9 -51 -16 -60 -16 -43 0
-231 -109 -231 -134 0 -13 -34 -30 -53 -27 -5 1 -6 -3 -2 -9 3 -5 -1 -10 -9
-10 -9 0 -16 -5 -16 -10 0 -6 15 -4 36 5 47 20 51 19 29 -5 -10 -11 -25 -20
-34 -21 -10 0 -12 -2 -3 -6 18 -7 15 -21 -4 -19 -9 0 -19 -6 -22 -14 -5 -13
-3 -13 11 -1 15 12 17 9 18 -30 1 -24 1 -47 0 -51 -1 -9 27 -4 36 7 4 4 3 5
-4 1 -6 -3 -14 -2 -18 4 -3 5 3 10 14 10 12 0 22 6 22 13 1 6 2 17 4 22 1 6 3
16 3 24 1 7 8 11 17 7 8 -3 15 -1 15 4 0 6 4 10 10 10 5 0 7 -7 4 -15 -4 -8
-1 -15 6 -15 6 0 9 4 6 8 -2 4 -1 14 5 22 6 11 9 7 10 -15 0 -25 2 -27 9 -10
5 15 7 9 6 -22 0 -22 -4 -39 -8 -36 -5 2 -8 -15 -8 -39 -1 -42 -1 -43 -15 -18
l-14 25 -2 -25 c-1 -14 -1 -29 0 -33 1 -5 -3 -6 -8 -3 -5 4 -12 -3 -16 -14 -7
-23 -16 -25 -33 -8 -7 7 -12 8 -12 4 0 -5 8 -16 18 -25 11 -11 18 -34 19 -71
2 -51 6 -58 46 -95 23 -22 54 -47 67 -56 14 -9 22 -20 18 -24 -4 -4 -17 2 -29
14 -24 22 -35 26 -42 14 -2 -5 -2 -2 0 5 2 8 -4 12 -16 10 -10 -2 -25 3 -35
11 -23 19 -28 10 -7 -15 21 -26 106 -75 123 -70 7 1 10 1 5 -1 -4 -3 -5 -9 -1
-14 8 -13 3 -12 -58 15 -31 14 -65 37 -77 52 -16 20 -21 23 -21 10 0 -10 -6
-16 -12 -13 -7 2 -13 13 -13 25 0 12 -12 33 -25 48 -17 18 -20 25 -9 21 13 -4
17 1 17 20 0 21 -2 23 -10 10 -11 -21 -40 -23 -32 -2 4 8 10 13 14 10 5 -3 11
14 15 37 3 24 9 52 11 63 5 20 5 20 -10 1 -9 -11 -16 -31 -16 -44 0 -13 -5
-33 -11 -45 l-12 -21 -10 24 c-10 25 -10 25 -17 -10 -7 -34 -7 -34 -9 -6 0 16
6 38 16 48 9 10 11 18 5 18 -8 0 -9 7 -2 26 10 24 3 81 -8 70 -3 -3 -11 -1
-18 5 -11 9 -22 3 -49 -24 -19 -19 -35 -43 -35 -53 -1 -23 -39 -95 -39 -74 0
8 6 24 14 34 8 11 15 31 15 44 0 14 12 37 29 52 33 32 59 92 35 83 -8 -3 -14
1 -14 11 0 10 -6 13 -16 9 -13 -5 -13 -7 -2 -14 8 -6 0 -6 -20 -3 -18 4 -32 3
-31 -2 4 -23 -2 -26 -15 -8 -11 14 -11 21 -3 27 8 6 7 7 -3 4 -8 -2 -14 -13
-13 -25 2 -15 -2 -19 -17 -15 -21 6 -28 -13 -8 -19 9 -3 9 -6 0 -12 -7 -4 -12
-2 -12 3 0 6 -4 11 -10 11 -5 0 -10 -6 -10 -13 0 -7 -9 -23 -19 -34 -16 -17
-19 -32 -16 -84 3 -36 10 -66 17 -71 9 -5 10 -8 1 -8 -7 0 -16 8 -22 18 -11
20 -17 9 -24 -43 -4 -27 -4 -26 -6 7 0 21 5 43 13 50 9 9 11 20 6 34 -10 25
-8 84 3 102 11 17 -8 15 -23 -3 -7 -8 -10 -15 -6 -15 3 0 -1 -17 -8 -37 -8
-21 -17 -47 -20 -58 -3 -11 -4 -1 -3 22 2 38 1 41 -18 31 -14 -7 -12 -2 8 17
32 30 27 56 -6 28 -11 -10 -17 -12 -13 -5 4 6 3 12 -2 12 -14 0 -33 -26 -25
-34 4 -4 -5 -18 -20 -32 -15 -14 -27 -22 -27 -19 0 11 -111 -100 -136 -137
-15 -21 -30 -35 -35 -33 -10 7 -31 -30 -22 -39 3 -3 1 -6 -5 -6 -7 0 -11 -3
-10 -7 3 -8 -62 -144 -73 -153 -20 -19 -60 -170 -64 -245 -1 -27 2 -90 7 -140
11 -120 10 -115 18 -115 3 0 14 -22 24 -50 11 -31 32 -62 58 -85 22 -19 36
-35 30 -35 -5 0 -10 -10 -11 -22 -3 -75 0 -119 12 -165 l14 -51 -39 -33 c-21
-17 -48 -50 -60 -72 -34 -67 -22 -111 72 -262 17 -27 18 -37 9 -70 -27 -98 20
-283 105 -415 68 -105 71 -115 42 -153 -58 -78 -111 -272 -104 -386 3 -57 8
-72 37 -108 41 -51 72 -63 138 -53 37 6 60 18 88 43 l39 36 23 -27 c12 -15 32
-56 44 -92 39 -124 78 -173 172 -215 48 -22 67 -26 110 -21 29 4 102 8 163 9
l112 2 6 -44 c3 -24 17 -79 31 -123 14 -43 25 -85 25 -92 0 -7 -23 -23 -50
-36 -36 -17 -47 -26 -38 -32 9 -6 6 -7 -7 -4 -11 3 -41 -5 -69 -19 -33 -17
-42 -25 -28 -25 11 0 28 -10 37 -23 14 -20 24 -22 98 -22 81 0 84 1 207 63 69
34 152 79 185 98 33 20 96 56 140 80 44 24 79 48 78 54 -2 5 4 10 12 10 24 0
95 49 95 65 0 8 -5 15 -12 15 -6 0 -8 -3 -5 -7 8 -8 -11 -33 -25 -33 -6 0 -5
7 2 15 7 8 9 15 4 15 -4 0 1 6 11 14 11 8 26 12 35 9 10 -3 9 1 -4 11 -11 9
-24 16 -30 16 -5 0 -6 3 -3 6 7 7 -30 44 -44 44 -5 0 -5 8 -2 17 5 13 1 12
-17 -5 -13 -12 -26 -19 -29 -16 -3 4 -1 9 5 11 7 2 10 13 7 23 -3 11 -9 17
-14 14 -5 -2 -11 7 -15 21 -5 20 -12 25 -37 25 -30 0 -30 0 -11 21 10 12 19
35 19 51 0 20 7 35 20 42 11 6 24 17 28 24 5 7 17 21 29 32 14 13 19 27 16 48
-3 21 1 33 14 41 10 6 18 22 18 36 0 18 5 25 19 25 14 0 20 9 23 36 2 19 0 37
-4 40 -15 10 -8 25 17 34 25 10 33 34 15 45 -6 3 -13 -1 -16 -10 -4 -9 -20
-23 -37 -32 -17 -8 -37 -22 -45 -29 -18 -19 -33 -18 -25 2 5 14 3 15 -17 4
-18 -10 -20 -14 -9 -21 11 -7 10 -11 -6 -23 -19 -14 -20 -13 -23 11 -2 16 4
32 17 44 12 11 21 25 20 32 0 9 -2 9 -6 0 -2 -7 -13 -13 -24 -13 -27 0 -89
-37 -89 -53 0 -3 -9 -16 -20 -29 -11 -12 -42 -54 -70 -92 -27 -38 -50 -65 -50
-59 0 5 5 14 12 21 8 8 9 12 1 12 -6 0 -23 -14 -37 -31 -15 -18 -31 -27 -37
-23 -7 4 -9 3 -5 -4 8 -13 -53 -102 -71 -102 -7 0 -10 -6 -6 -17 4 -10 2 -14
-4 -10 -5 3 -17 -10 -26 -29 -10 -19 -21 -33 -25 -30 -5 3 -15 -4 -22 -15 -8
-10 -24 -19 -35 -19 -12 0 -27 -6 -33 -12 -10 -10 -14 -10 -21 0 -4 7 -21 17
-37 21 -17 5 -28 14 -26 22 2 8 0 11 -3 7 -4 -4 -16 -3 -25 2 -15 8 -17 6 -13
-9 3 -13 -3 -21 -24 -29 -72 -27 -113 -24 -113 9 0 10 -8 23 -17 28 -17 10
-16 10 2 11 20 1 20 1 0 15 -16 13 -19 28 -20 106 0 76 3 93 18 104 14 10 15
14 5 18 -10 4 -8 10 6 21 11 9 20 24 21 33 2 30 43 113 55 113 7 0 10 16 7 44
-3 34 0 43 10 39 7 -3 13 0 13 6 0 10 -14 15 -32 12 -5 0 -8 8 -8 19 0 11 5
20 10 20 6 0 10 21 10 46 0 27 4 43 10 39 14 -9 13 -68 -2 -83 -9 -9 -8 -15 7
-26 11 -8 26 -11 33 -8 11 4 8 9 -9 18 -13 7 -19 13 -14 14 6 0 9 17 7 39 -4
35 -1 40 20 43 18 2 23 9 21 30 -1 15 3 27 9 25 6 -1 12 3 15 10 2 6 -6 13
-19 15 -18 3 -14 7 20 17 37 10 43 16 39 33 -7 25 12 66 22 50 5 -8 17 -8 44
0 34 11 36 12 17 25 -12 8 -17 21 -15 36 12 62 18 77 28 77 8 0 8 3 -1 8 -9 6
-6 12 13 20 29 14 32 27 8 41 -17 10 -17 12 1 25 14 11 17 22 12 43 -9 34 -48
116 -60 124 -4 4 -3 10 3 13 20 13 13 38 -9 31 -11 -4 -20 -2 -20 4 0 6 -11
11 -24 11 -27 0 -40 22 -23 39 9 9 8 15 -6 22 -28 16 -56 50 -51 63 3 7 -9 23
-26 36 -18 14 -26 26 -20 30 24 15 -57 7 -87 -8 -26 -13 -35 -14 -45 -4 -9 9
-8 12 5 12 9 0 17 5 17 10 0 13 -13 13 -27 -1 -7 -7 -25 -9 -48 -5 -29 6 -40
14 -48 37 -6 16 -15 29 -20 29 -4 0 -5 -4 -2 -10 4 -6 -7 -10 -25 -10 -18 0
-33 6 -36 15 -3 8 -21 17 -39 21 -19 3 -36 12 -39 20 -3 8 -13 14 -21 14 -9 0
-13 5 -10 10 3 6 -1 10 -9 10 -9 0 -16 4 -16 9 0 5 -2 16 -5 23 -3 8 4 25 16
39 11 13 24 29 27 34 4 6 46 42 95 80 48 38 93 82 100 97 6 15 16 28 21 28 4
0 3 7 -4 15 -20 24 49 91 100 99 52 8 99 48 82 68 -6 8 -8 18 -4 22 4 4 1 6
-7 4 -8 -2 -20 7 -26 19 -13 24 -57 63 -73 63 -5 0 -15 6 -21 14 -7 8 -27 17
-46 20 -24 5 -32 11 -28 21 3 9 -1 15 -10 15 -9 0 -29 11 -44 24 -36 30 -123
45 -157 26 -29 -15 -60 -10 -64 10 -2 10 10 20 31 28 18 6 42 18 52 26 20 15
20 15 0 10 -16 -4 -21 0 -21 14 0 12 5 18 13 15 7 -3 13 0 13 6 0 6 -13 11
-30 11 -25 0 -31 5 -41 39 -11 38 -5 146 9 155 4 2 5 -20 4 -50 -2 -30 0 -62
4 -72 4 -9 6 -21 5 -26 -1 -5 6 -6 15 -2 12 5 15 2 10 -9 -3 -9 -2 -14 3 -11
4 3 18 -4 30 -15 18 -17 24 -19 38 -8 14 12 13 14 -8 20 -24 7 -24 7 -1 8 12
1 22 6 22 12 0 21 33 38 53 27 26 -14 61 -3 93 29 l26 26 -31 -6 c-30 -6 -43
6 -18 17 6 3 0 4 -15 2 -16 -2 -28 1 -28 7 0 6 -5 6 -13 -1 -8 -7 -17 -7 -30
2 -21 16 -22 36 -2 36 8 0 14 -3 14 -7 -3 -20 2 -23 15 -10 9 9 29 13 51 11
51 -4 56 19 14 62 -37 38 -55 45 -39 14 6 -11 9 -20 6 -20 -14 0 -56 24 -56
32 0 5 5 6 12 2 8 -5 9 -2 5 10 -4 9 -3 15 2 12 5 -3 11 12 15 35 11 66 46
107 46 53 0 -14 4 -23 8 -20 4 2 14 -9 21 -24 7 -16 18 -28 24 -27 7 1 11 -7
9 -20 -2 -13 2 -23 8 -23 6 0 8 4 5 10 -4 6 1 7 11 3 11 -4 13 -8 6 -11 -22
-7 -12 -23 11 -18 12 3 16 3 10 0 -22 -10 -14 -26 10 -20 12 3 4 -3 -18 -13
-38 -18 -39 -20 -12 -20 15 -1 27 -5 27 -10 0 -4 12 -8 27 -7 19 1 28 -4 28
-14 0 -8 7 -15 15 -16 8 0 31 -10 50 -22 30 -19 36 -20 38 -6 3 11 7 12 17 4
15 -12 75 17 75 37 0 6 6 13 13 16 6 2 9 8 5 12 -4 4 -14 3 -22 -4 -11 -9 -18
-7 -32 12 -11 13 -28 27 -39 32 -17 7 -12 10 25 17 123 23 127 24 103 32 -13
4 -23 12 -23 17 0 5 -10 9 -23 9 -29 0 -111 82 -132 134 -19 46 -13 58 14 25
11 -13 20 -19 21 -12 0 6 -11 20 -25 31 -21 17 -24 25 -20 73 8 90 27 119 41
62 7 -25 34 -64 34 -48 0 11 65 -28 93 -56 15 -16 30 -29 33 -29 6 0 -35 49
-93 110 -18 19 -33 40 -33 46 0 5 -6 16 -12 23 -7 6 -14 16 -14 22 -1 5 -2 10
-4 12 -4 5 -11 43 -12 65 0 18 -3 20 -14 11 -8 -6 -11 -16 -7 -23 4 -6 -1 -4
-11 4 -17 14 -17 15 3 31 11 9 18 19 15 22 -3 2 7 5 21 5 19 0 23 -4 16 -11
-6 -6 -11 -19 -11 -30 0 -14 5 -17 23 -12 18 6 20 5 10 -6 -7 -7 -13 -24 -13
-36 0 -20 2 -22 14 -11 8 7 12 16 9 21 -2 4 0 7 5 7 5 0 19 9 32 20 20 18 60
28 60 15 0 -2 -12 -11 -27 -19 -28 -15 -28 -15 -4 -16 23 0 24 -1 6 -20 -10
-11 -15 -20 -10 -20 4 0 2 -7 -5 -15 -9 -10 -9 -15 -1 -15 6 0 11 5 11 10 0
19 21 10 32 -15 8 -19 8 -28 -2 -40 -10 -12 -10 -15 3 -15 10 0 14 -6 11 -14
-3 -8 6 -25 21 -38 14 -14 28 -33 29 -44 2 -11 11 -19 22 -19 10 0 19 -7 19
-15 0 -18 19 -40 35 -40 11 0 -32 68 -67 105 -20 22 -54 87 -48 93 8 9 25 -10
25 -28 0 -10 5 -22 12 -26 8 -5 9 0 4 17 -20 63 -14 68 12 13 30 -63 60 -97
50 -56 -3 11 -1 23 6 25 8 3 11 -6 9 -27 -3 -26 3 -36 33 -58 21 -16 47 -28
60 -28 13 0 26 -5 30 -12 5 -8 0 -9 -14 -6 -12 4 -20 2 -17 -3 5 -8 -23 -19
-72 -28 -5 -1 -1 -5 7 -11 9 -5 19 -5 26 1 8 6 14 5 18 -6 3 -8 1 -15 -5 -15
-6 0 -7 -5 -3 -11 4 -8 0 -9 -15 -4 -11 3 -21 2 -21 -3 0 -6 -7 -13 -16 -16
-11 -4 -14 0 -12 16 2 14 -3 24 -12 25 -11 3 -16 -7 -17 -34 -1 -29 0 -33 7
-18 7 16 9 14 9 -15 1 -40 14 -65 29 -56 6 3 17 -1 26 -9 15 -15 15 -61 0
-104 -2 -8 0 -17 6 -21 6 -4 13 -19 14 -33 2 -15 0 -25 -4 -22 -8 5 -34 -24
-43 -50 -5 -11 -3 -21 5 -26 9 -6 12 -28 10 -69 -2 -36 1 -60 7 -60 6 0 8 8 5
18 -5 15 -4 15 9 -1 9 -11 13 -25 11 -32 -3 -7 -1 -16 5 -20 6 -3 11 -15 11
-26 0 -10 4 -19 10 -19 5 0 19 -18 30 -40 12 -23 28 -44 36 -47 15 -6 39 -50
36 -66 -1 -4 12 -10 28 -14 24 -4 32 -12 37 -34 3 -16 9 -26 14 -23 5 3 9 -5
9 -16 0 -12 7 -38 17 -57 13 -28 21 -34 40 -30 12 2 23 1 23 -2 0 -3 21 -14
48 -24 26 -10 55 -23 64 -28 25 -13 31 -11 24 6 -3 9 0 15 8 15 8 0 16 -6 19
-12 2 -8 20 -13 43 -13 21 0 37 -4 36 -9 -2 -5 1 -12 8 -16 6 -4 13 -24 16
-46 3 -21 10 -56 16 -77 9 -28 8 -41 0 -49 -9 -9 -12 -7 -12 8 -1 18 -1 18
-14 2 -17 -23 -33 -23 -46 2 -12 23 -42 26 -59 7 -8 -10 -7 -17 1 -25 8 -8 7
-13 -6 -18 -12 -5 -14 -10 -6 -19 8 -10 1 -16 -27 -28 -31 -12 -35 -17 -20
-22 14 -6 15 -10 6 -22 -9 -10 -9 -17 -1 -25 16 -16 15 -43 -2 -57 -11 -9 -12
-20 -6 -42 10 -33 4 -59 -14 -59 -6 0 -5 -4 3 -9 12 -8 13 -16 4 -46 -15 -48
14 -155 42 -155 7 0 15 -10 18 -22 4 -12 9 -19 13 -15 4 4 17 -10 29 -30 17
-31 27 -39 58 -43 21 -3 38 -8 37 -12 0 -5 3 -7 8 -5 4 1 6 5 4 10 -4 12 6 8
28 -10 11 -10 20 -22 20 -28 0 -5 -5 -3 -11 5 -7 11 -9 4 -5 -27 3 -25 0 -52
-9 -70 -22 -44 -17 -181 6 -167 5 3 9 -3 9 -13 1 -17 68 -78 77 -69 2 2 -5 19
-16 39 -26 46 -42 105 -30 113 5 3 9 21 9 40 0 19 7 46 16 59 9 14 12 25 6 25
-6 0 -13 -6 -15 -12 -4 -10 -6 -10 -6 0 -2 23 20 54 34 48 8 -3 15 -2 17 2 2
4 18 18 36 31 35 25 44 15 12 -14 -20 -18 -20 -18 -1 -37 11 -10 27 -18 34
-18 14 0 23 -39 33 -140 4 -46 14 -131 18 -150 1 -8 9 -28 18 -45 8 -16 18
-55 22 -85 8 -75 15 -110 26 -131 6 -10 10 -27 10 -39 0 -15 5 -20 15 -17 8 4
17 2 20 -3 3 -5 -3 -10 -12 -13 -14 -3 -11 -6 10 -11 15 -5 27 -12 27 -18 0
-14 81 -47 99 -40 9 3 43 22 76 42 33 21 86 48 118 60 l57 24 0 268 c0 213 -3
268 -12 262 -10 -6 -10 -4 0 7 15 16 17 73 1 63 -8 -4 -7 0 1 15 8 15 11 102
9 291 -1 149 -4 270 -6 270 -2 0 -10 -18 -19 -40 -20 -49 -26 -48 -15 3 5 20
5 35 1 32 -4 -2 -10 -19 -14 -36 -8 -42 -13 -35 -20 25 -5 43 -2 55 20 88 28
40 40 49 30 22 -3 -8 -2 -13 3 -9 5 3 12 -1 14 -7 3 -7 6 8 6 34 1 41 -2 47
-21 51 l-23 4 22 2 23 1 -2 205 c-1 149 -5 206 -14 209 -7 3 -15 20 -19 38 -4
18 -12 44 -18 58 -5 14 -12 34 -14 45 -2 11 -9 25 -17 30 -7 6 -15 22 -18 38
-4 22 -3 25 9 15 8 -6 12 -16 10 -22 -3 -7 4 -12 14 -12 16 0 16 4 -7 33 -14
18 -22 38 -19 43 8 13 -8 13 -22 -1 -7 -7 -12 -5 -17 6 -5 13 -2 16 10 11 13
-5 15 -1 9 21 -9 38 -14 41 -30 20 -11 -15 -13 -16 -19 -2 -3 9 0 15 9 15 8 0
15 5 15 10 0 6 -5 10 -12 10 -9 0 -9 3 0 12 18 18 15 28 -8 28 -13 0 -18 5
-14 15 4 8 10 12 15 9 5 -3 9 5 9 16 0 15 5 20 15 17 12 -5 12 -2 3 18 -13 30
5 59 32 50 9 -3 22 1 28 8 9 10 0 16 -46 25 -78 16 -120 43 -118 76 l1 25 25
-23 c28 -26 57 -38 63 -28 2 4 3 2 1 -5 -4 -18 8 -24 23 -11 11 8 12 7 7 -5
-4 -12 4 -17 40 -22 24 -4 49 -4 55 0 6 3 11 2 11 -4 0 -5 -8 -12 -17 -14 -14
-4 -12 -5 5 -6 21 -1 22 2 22 82 0 63 -5 93 -20 125 -27 55 -35 98 -21 106 6
4 11 16 11 27 0 11 -4 17 -10 14 -5 -3 -10 0 -10 9 0 8 -11 28 -25 44 -14 17
-25 35 -25 41 0 6 -4 11 -8 11 -4 0 -21 23 -37 50 -16 28 -36 50 -43 50 -12 0
-12 -3 -2 -15 17 -20 5 -32 -15 -15 -14 12 -15 10 -10 -13 4 -15 3 -27 -2 -27
-5 0 -9 -18 -10 -41 -2 -37 0 -39 20 -33 20 6 21 5 7 -11 -14 -17 -14 -18 10
-5 23 12 24 12 11 -3 -7 -9 -10 -24 -7 -33 3 -8 -1 -22 -9 -30 -13 -14 -15
-13 -15 5 0 12 -6 21 -15 21 -32 0 -59 -79 -40 -122 4 -11 3 -18 -4 -18 -6 0
-11 7 -11 16 0 8 -5 12 -10 9 -10 -6 -8 -23 7 -62 3 -7 1 -13 -4 -13 -6 0 -15
15 -21 33 -9 30 -10 30 -12 7 -2 -21 -3 -20 -10 10 -5 19 -6 39 -2 44 3 6 7
24 9 40 4 35 -15 24 -22 -12 -2 -12 -7 -27 -10 -32 -12 -19 -16 -62 -7 -74 11
-14 25 -53 16 -44 -3 4 -15 -3 -25 -15 -15 -18 -18 -19 -19 -5 0 9 5 20 10 23
12 7 14 35 2 35 -4 0 -12 -13 -18 -28 -9 -24 -8 -32 11 -53 12 -13 28 -25 36
-27 29 -7 29 -19 0 -16 -26 3 -30 0 -28 -16 2 -11 11 -26 20 -33 14 -10 14
-14 1 -25 -8 -7 -14 -8 -14 -2 0 5 -6 10 -14 10 -8 0 -28 11 -44 25 -17 14
-43 25 -58 26 -25 0 -26 1 -9 9 17 7 17 9 3 9 -10 1 -18 5 -18 9 0 5 -19 29
-42 53 -24 24 -42 47 -41 50 2 7 -70 49 -94 54 -10 2 -26 6 -35 10 -11 4 -18
3 -18 -4 0 -6 5 -11 12 -11 6 0 8 -3 5 -6 -9 -9 -38 16 -31 27 3 5 -1 9 -8 10
-7 0 -21 2 -30 4 -10 2 -18 -1 -18 -6 0 -15 42 -37 95 -50 28 -7 55 -17 60
-22 10 -9 2 -8 -80 8 -28 5 -28 5 -7 -6 25 -14 29 -26 7 -26 -8 0 -11 5 -8 10
4 6 0 8 -10 4 -9 -3 -19 -1 -23 4 -3 6 -18 8 -31 4 -21 -5 -24 -3 -19 10 4 13
2 14 -14 5 -13 -7 -20 -7 -20 -1 0 5 -12 16 -27 23 -16 7 -29 19 -29 26 -3 25
-5 27 -14 12 -7 -11 -10 -11 -10 -2 0 10 -5 10 -21 1 -18 -9 -25 -7 -42 10
-12 12 -16 21 -10 21 7 0 15 -4 18 -10 3 -5 11 -10 17 -10 7 0 2 9 -11 21 -14
13 -20 27 -16 39 3 11 -4 29 -18 46 -13 16 -29 38 -35 49 -8 14 -12 16 -12 5
0 -13 -1 -13 -10 0 -14 23 8 44 27 25 8 -9 19 -12 24 -9 6 3 -4 19 -21 35 -17
17 -28 34 -25 40 4 5 15 -1 25 -13 10 -13 21 -20 25 -17 3 4 0 13 -8 20 -7 8
-12 19 -10 26 2 6 -5 14 -16 18 -29 9 -27 29 2 21 14 -3 32 1 43 9 32 24 47
16 17 -10 -15 -13 -25 -25 -22 -25 3 0 16 9 29 20 13 11 37 20 56 20 26 0 32
3 27 16 -3 8 -12 13 -19 10 -7 -3 -39 0 -70 7 -50 10 -57 10 -69 -6 -8 -12
-15 -14 -20 -8 -3 6 -1 11 6 11 10 0 10 3 1 12 -7 7 -52 11 -132 10 -96 -1
-124 -5 -137 -17 -9 -10 -22 -13 -32 -9 -9 4 -42 10 -74 12 -52 3 -56 2 -50
-15 6 -16 5 -16 -10 -4 -21 17 -145 25 -162 11 -8 -7 -16 -7 -19 -2 -3 5 -27
13 -53 17 -41 6 -45 9 -30 19 9 7 13 17 9 21 -4 5 -2 5 5 1 6 -3 14 -2 18 4
25 40 248 130 355 142 16 2 20 5 10 9 -8 3 -40 2 -70 -2z m20 -219 c19 -12 6
-25 -17 -15 -10 5 -24 7 -30 6 -7 -1 -13 3 -13 9 0 12 40 13 60 0z m-370 -15
c-10 -12 -9 -15 6 -15 16 0 17 -2 4 -10 -33 -21 -44 -7 -31 38 1 1 8 2 17 2
14 0 14 -3 4 -15z m450 -20 c7 -8 20 -15 29 -16 10 0 11 -2 4 -6 -13 -5 -18
-43 -6 -43 3 0 15 8 25 17 18 16 18 16 12 -2 -5 -13 -4 -16 4 -11 7 4 12 1 12
-8 0 -9 5 -16 10 -16 20 0 25 -3 37 -20 6 -9 10 -28 9 -43 -2 -15 1 -24 5 -21
5 3 9 0 9 -7 0 -14 39 -59 51 -59 5 0 6 15 4 33 l-5 32 11 -30 c6 -16 13 -37
17 -45 9 -25 10 -50 0 -44 -4 3 -6 9 -3 14 5 9 -55 33 -63 25 -3 -3 1 -5 8 -5
7 0 10 -3 7 -7 -4 -3 -2 -12 5 -20 6 -7 8 -17 4 -20 -4 -4 -11 -2 -15 6 -5 8
-8 2 -7 -17 1 -18 6 -28 13 -25 7 3 10 -3 9 -14 -2 -10 1 -24 7 -31 18 -22 -2
-26 -22 -4 -12 15 -19 39 -19 69 -1 29 -6 49 -14 52 -17 6 -79 73 -73 80 3 2
11 -1 17 -7 7 -7 18 -12 26 -12 9 0 5 8 -11 20 -14 11 -29 20 -35 20 -14 0
-54 37 -66 62 -6 13 -23 28 -36 35 -14 7 -19 13 -12 13 10 0 10 3 0 14 -7 8
-17 13 -22 13 -4 -1 -10 6 -11 16 -3 15 -1 16 11 6 11 -9 15 -8 20 5 8 20 38
21 54 1z m216 -77 l0 -50 -22 25 c-12 14 -24 24 -27 21 -2 -3 -7 3 -11 12 -6
15 -5 15 18 0 35 -23 39 -20 21 14 -21 40 -20 53 3 39 13 -8 18 -24 18 -61z
m-706 43 c0 -5 -8 -12 -17 -15 -15 -6 -15 -8 -3 -16 9 -6 10 -10 3 -10 -16 0
-26 18 -19 35 6 16 36 21 36 6z m674 -100 c-3 -56 -4 -62 -13 -57 -5 4 -8 25
-6 49 4 51 3 49 13 44 4 -3 6 -19 6 -36z m-894 -4 c0 -7 -4 -7 -9 2 -8 12 -11
10 -16 -10 -3 -14 -16 -31 -28 -39 -19 -11 -20 -11 -11 1 5 8 18 27 28 42 16
27 36 29 36 4z m736 -64 c19 -16 23 -27 19 -46 -5 -19 -11 -24 -23 -19 -15 5
-16 4 -2 -14 14 -18 14 -18 -6 -1 -12 9 -26 35 -32 56 -7 21 -23 50 -37 65
-14 15 -25 32 -25 37 0 9 44 -23 106 -78z m-806 41 c-6 -14 -10 -38 -10 -54 0
-16 -4 -31 -9 -34 -5 -3 -8 7 -6 22 4 46 17 92 26 92 5 0 4 -12 -1 -26z m146
-105 c-21 -53 -25 -58 -19 -25 3 22 12 50 19 64 7 14 10 30 7 36 -4 7 -2 7 6
0 9 -8 6 -26 -13 -75z m1902 22 c23 -20 32 -81 11 -81 -7 0 -9 10 -4 27 5 21
1 31 -22 49 -15 13 -23 23 -18 23 6 0 20 -8 33 -18z m-2038 -45 c-22 -41 -25
-50 -10 -41 6 3 10 1 10 -4 0 -6 -5 -11 -11 -11 -6 0 -9 -9 -6 -20 3 -11 0
-18 -6 -17 -16 3 -21 -39 -7 -60 10 -16 11 -16 7 4 -3 15 1 23 14 26 11 3 24
19 30 36 6 17 16 31 21 31 7 0 7 -4 1 -12 -15 -19 -34 -80 -23 -73 6 4 10 -14
11 -42 1 -46 3 -62 8 -73 7 -15 6 -50 -1 -50 -5 0 -13 10 -18 23 -9 20 -10 20
-9 2 1 -11 1 -27 0 -35 -1 -13 -3 -13 -10 0 -6 8 -7 18 -5 22 3 4 -3 8 -13 8
-13 0 -15 2 -5 9 10 6 10 10 -2 20 -8 7 -18 33 -22 57 -3 24 -10 44 -14 44
-15 0 -16 44 -2 66 7 12 15 33 18 48 2 14 15 37 29 52 14 15 25 32 26 38 0 8
2 8 5 0 3 -7 -4 -28 -16 -48z m1093 5 c-3 -12 5 -26 23 -40 22 -17 30 -19 42
-9 13 11 14 10 3 -10 -6 -12 -8 -21 -4 -20 14 4 53 -13 53 -23 0 -5 7 -9 15
-9 8 0 15 -5 15 -11 0 -5 5 -7 11 -3 6 3 15 0 20 -7 8 -12 11 -12 19 1 7 10
10 11 10 2 0 -7 12 -17 28 -23 25 -10 26 -12 7 -19 -19 -8 -19 -9 2 -9 12 -1
25 4 28 9 8 12 51 3 84 -17 13 -9 50 -16 83 -18 32 -1 61 -4 64 -8 3 -3 -8 -5
-25 -5 -17 1 -35 -3 -39 -7 -4 -4 3 -6 15 -3 12 3 30 0 39 -7 14 -10 5 -11
-52 -7 -38 3 -85 6 -106 6 -20 1 -34 4 -31 9 2 4 -2 7 -10 7 -25 0 -141 57
-181 89 -21 17 -42 31 -47 31 -12 0 -58 50 -75 82 -11 20 -11 28 -1 31 6 3 13
6 14 6 0 1 -1 -7 -4 -18z m-1143 -54 c0 -2 -18 -23 -40 -47 -22 -24 -40 -39
-40 -35 0 5 17 26 37 47 35 36 43 42 43 35z m433 -27 c4 0 3 7 0 17 -4 11 -3
14 5 9 7 -4 12 -14 12 -22 0 -8 15 -30 33 -48 53 -54 71 -76 61 -76 -16 0 -99
82 -96 93 2 7 0 9 -4 5 -8 -9 -44 29 -44 46 0 6 7 3 14 -6 7 -10 16 -18 19
-18z m-529 -59 c7 -10 6 -12 -4 -6 -10 6 -11 1 -6 -21 5 -24 4 -26 -5 -11 -6
10 -8 25 -5 33 3 8 2 14 -2 14 -4 0 -8 17 -9 38 l-1 37 11 -35 c7 -19 16 -41
21 -49z m2211 71 c18 -13 36 -52 24 -52 -5 0 -7 -4 -4 -10 3 -5 2 -10 -3 -10
-5 0 -9 12 -9 27 0 14 -9 32 -19 40 -10 7 -14 13 -8 13 5 0 14 -4 19 -8z
m-1235 -24 c0 -5 5 -6 10 -3 12 8 45 -23 36 -33 -4 -3 -10 -2 -14 3 -4 6 -19
16 -34 22 -29 13 -40 37 -13 27 8 -4 15 -10 15 -16z m-759 -51 c-6 -6 -11 -26
-11 -43 0 -18 -4 -35 -8 -38 -15 -9 -10 78 5 92 7 7 14 23 14 35 2 16 3 14 6
-7 3 -16 0 -33 -6 -39z m79 -147 c25 -11 36 -18 25 -15 -11 4 -37 9 -57 12
-21 3 -38 9 -38 13 0 4 -9 10 -20 13 -11 3 -20 10 -20 16 0 11 20 4 110 -39z
m-315 -26 c1 -21 -1 -50 -6 -66 -9 -32 5 -47 20 -21 9 16 10 16 11 -3 0 -30
-27 -51 -43 -35 -12 12 -13 79 -2 139 8 42 16 36 20 -14z m-43 -86 c3 -38 8
-71 11 -75 4 -3 7 -1 7 5 0 7 4 12 9 12 5 0 7 -9 4 -20 -3 -11 -9 -20 -13 -20
-12 0 -34 61 -34 96 0 18 -4 30 -8 28 -4 -3 -8 -21 -8 -41 0 -53 -10 -34 -15
28 -2 30 0 48 4 40 7 -10 11 -10 22 2 8 8 15 14 16 13 1 0 3 -31 5 -68z m1382
14 c-3 -14 -10 -33 -15 -41 -8 -13 -9 -10 -5 9 3 14 6 39 6 55 0 21 3 26 9 16
5 -8 7 -25 5 -39z m514 28 c17 -11 32 -15 32 -10 0 6 5 10 10 10 6 0 10 -9 10
-21 0 -15 -4 -19 -16 -15 -9 3 -19 6 -23 6 -4 0 -21 11 -37 25 -35 30 -22 33
24 5z m215 6 c22 -17 22 -26 -1 -26 -9 0 -23 9 -30 20 -15 24 2 28 31 6z
m-664 -46 c5 -16 19 -34 30 -40 12 -6 19 -15 16 -21 -9 -14 -25 -11 -25 6 0 8
-4 15 -10 15 -5 0 -19 18 -30 40 -15 29 -17 38 -6 34 8 -3 19 -18 25 -34z
m367 -6 c22 -19 30 -31 19 -26 -20 10 -73 62 -63 62 3 0 23 -16 44 -36z m-266
-12 c0 -20 72 -80 89 -75 11 3 24 -3 32 -15 18 -24 56 -45 69 -37 13 8 13 35
0 35 -5 0 -7 -7 -4 -15 4 -8 1 -15 -5 -15 -6 0 -11 6 -11 13 -1 16 -45 48 -70
50 -10 1 -16 5 -14 9 3 4 2 8 -3 8 -4 0 -21 11 -38 25 l-30 25 50 -27 50 -26
-24 26 c-35 38 -19 33 43 -13 29 -22 56 -40 59 -40 15 0 -6 28 -29 38 -13 7
-24 17 -24 24 0 10 2 10 8 1 4 -6 20 -16 35 -22 15 -6 27 -16 27 -24 0 -7 16
-28 35 -47 l35 -34 -5 34 -6 35 15 -34 c19 -40 13 -53 -19 -41 -15 6 -25 6
-25 0 0 -5 9 -11 19 -15 12 -4 18 -12 14 -21 -3 -9 1 -14 15 -14 11 0 22 -8
25 -19 6 -25 -26 -56 -49 -47 -12 5 -15 2 -10 -11 6 -14 4 -15 -5 -6 -13 13
-3 37 12 28 5 -4 17 -1 26 5 12 7 13 10 3 7 -8 -2 -37 2 -64 10 -52 15 -71 7
-58 -25 3 -10 1 -13 -6 -8 -7 4 -12 3 -12 -3 0 -5 -27 4 -60 22 -41 21 -56 33
-48 39 10 5 8 8 -4 8 -10 0 -18 4 -18 10 0 5 8 7 18 4 13 -5 14 -4 3 4 -8 6
-20 8 -26 6 -18 -7 -160 129 -151 145 6 9 15 4 32 -16 13 -15 24 -31 24 -35 0
-4 7 -5 15 -2 9 4 21 -6 34 -27 11 -18 37 -40 58 -50 56 -27 64 -23 17 9 -45
29 -102 92 -85 92 6 0 15 -9 21 -21 7 -12 18 -18 26 -15 17 7 76 -33 68 -45
-3 -5 3 -6 12 -2 12 4 15 3 10 -5 -4 -7 -1 -12 8 -12 23 0 20 15 -6 33 -36 24
-118 109 -118 122 0 3 5 5 10 5 6 0 10 -4 10 -8z m-289 -166 c4 2 11 -1 14 -7
4 -6 17 -14 29 -19 16 -7 17 -9 4 -9 -9 -1 -20 4 -23 9 -3 6 -10 10 -16 10
-22 0 -5 -18 47 -53 65 -42 65 -45 1 -17 -46 20 -107 85 -107 113 0 8 -4 17
-9 19 -5 2 -13 17 -16 33 -6 25 0 20 31 -27 21 -31 41 -55 45 -52z m739 29
c-7 -9 -10 -18 -6 -22 3 -3 6 -1 6 5 0 7 5 12 11 12 6 0 9 -7 5 -15 -7 -20 18
-19 38 1 23 22 20 1 -4 -27 -10 -13 -19 -18 -20 -11 0 6 -4 12 -10 12 -5 0 -7
-8 -3 -17 3 -10 2 -15 -2 -10 -5 4 -17 0 -27 -10 -15 -13 -18 -14 -18 -2 0 8
5 20 12 27 7 7 8 12 2 12 -5 0 -17 -12 -26 -27 -23 -37 -23 -10 -1 30 26 46
34 57 45 57 6 0 5 -7 -2 -15z m-528 -8 c7 -7 26 -22 42 -35 16 -12 24 -22 19
-22 -11 0 -92 69 -81 70 4 0 13 -6 20 -13z m533 -146 c58 -26 108 -71 126
-112 6 -16 14 -29 18 -29 13 0 31 -145 28 -220 -3 -77 -14 -107 -88 -243 -41
-75 -145 -170 -234 -213 -38 -19 -81 -43 -95 -53 l-24 -19 39 -7 c22 -4 46
-13 54 -19 8 -6 24 -9 36 -8 13 2 26 -2 31 -9 5 -9 0 -10 -20 -5 -15 4 -26 2
-26 -4 0 -9 25 -14 73 -13 12 0 14 -4 8 -10 -11 -11 -101 6 -156 29 l-30 13
35 2 c32 1 33 2 10 9 -33 11 -87 12 -92 3 -6 -15 -79 -43 -109 -43 -42 0 -28
17 21 25 22 4 43 11 46 17 5 7 -5 9 -27 6 -40 -7 -73 8 -65 28 6 17 1 18 -25
4 -14 -8 -19 -8 -17 2 2 7 -7 17 -19 23 -13 5 -23 15 -23 21 0 12 33 43 74 69
28 17 29 18 10 32 -10 8 -30 12 -44 9 -37 -7 -49 4 -35 31 11 22 12 22 28 3
23 -27 28 -26 76 14 50 42 101 52 187 36 l65 -13 34 33 c49 47 81 123 87 203
5 55 3 69 -11 78 -14 9 -13 10 3 5 16 -6 17 -4 5 10 -12 14 -11 16 6 12 12 -2
19 -11 19 -21 -1 -11 4 -16 14 -15 9 2 17 -2 17 -9 0 -7 9 -19 20 -27 18 -13
18 -14 -10 -9 -27 5 -28 4 -12 -9 10 -8 21 -32 24 -56 5 -38 7 -40 18 -25 7
10 17 35 23 56 9 31 8 39 -6 47 -13 8 -9 10 18 5 26 -4 30 -3 15 4 -11 5 -30
10 -43 10 -13 1 -21 5 -17 10 3 5 21 7 40 4 28 -4 35 -2 35 11 0 11 -9 16 -26
16 -14 0 -23 4 -19 10 3 5 15 6 27 1 18 -7 25 -2 40 28 20 39 23 54 7 31 -9
-12 -10 -11 -6 7 4 19 1 21 -30 18 -28 -3 -32 -1 -22 11 7 8 10 15 8 17 -59
34 -81 37 -54 7 20 -22 14 -26 -16 -9 -11 5 -17 14 -14 20 4 5 1 9 -4 9 -22 0
-10 16 12 18 13 1 35 6 48 12 20 8 21 10 4 9 -38 -2 -52 2 -32 10 30 11 -89
80 -151 88 -44 5 -54 2 -104 -31 -80 -54 -102 -97 -108 -221 -3 -55 -9 -98
-14 -97 -5 2 -12 -2 -17 -9 -4 -7 -9 26 -11 73 -2 65 0 84 10 81 6 -3 12 2 12
11 0 20 59 138 73 148 6 4 14 5 17 3 3 -2 12 10 19 26 28 65 137 83 236 40z
m-210 -312 c5 -5 -3 -9 -22 -9 -17 0 -37 7 -44 16 -12 15 -10 16 21 9 19 -4
39 -11 45 -16z m-1961 -234 c11 -8 14 -15 8 -15 -7 0 -12 -7 -12 -15 0 -8 -4
-15 -10 -15 -5 0 -10 -5 -10 -11 0 -6 9 -8 23 -4 12 3 17 3 11 -2 -12 -8 -12
-48 -1 -59 4 -4 7 2 7 14 0 46 60 7 65 -42 4 -35 -32 -47 -55 -18 -9 11 -31
23 -49 27 -20 4 -35 15 -38 26 -3 10 -13 19 -22 19 -22 1 -55 27 -43 34 6 3
18 3 29 0 15 -5 15 -4 3 5 -12 8 -12 13 -2 23 10 10 15 10 22 -2 8 -13 11 -13
22 -1 10 10 10 15 1 18 -10 4 -10 7 0 18 15 18 27 18 51 0z m2411 -91 c-9 -21
-18 -64 -22 -96 -3 -32 -10 -58 -16 -58 -18 0 3 141 25 173 27 37 33 28 13
-19z m-315 -444 c0 -5 -19 -10 -42 -9 -37 1 -39 2 -18 9 36 12 60 12 60 0z
m-140 -54 c0 -5 -60 -36 -69 -36 -12 1 42 40 55 40 8 0 14 -2 14 -4z m30 -111
c0 -8 -8 -15 -17 -15 -15 0 -16 -2 -3 -10 12 -8 11 -10 -7 -10 -34 0 -37 17
-6 34 35 19 33 19 33 1z m210 -670 c0 -47 -9 -56 -36 -32 -28 24 -31 52 -7 66
23 12 43 -4 43 -34z"/>
<path d="M5810 4590 c0 -5 8 -10 18 -10 9 0 28 -3 42 -6 l25 -5 -25 15 c-29
18 -60 21 -60 6z"/>
<path d="M5940 4191 c26 -21 50 -27 50 -12 0 5 -8 11 -17 14 -10 2 -27 8 -38
12 -16 6 -15 3 5 -14z"/>
<path d="M5836 4168 c6 -14 94 -61 94 -51 0 3 -8 12 -17 20 -17 14 -17 14 2 8
35 -11 6 8 -33 22 -46 16 -53 16 -46 1z"/>
<path d="M5685 5110 c-21 -23 -19 -33 5 -25 11 4 20 2 20 -4 0 -6 9 -11 20
-11 13 0 20 -7 20 -20 0 -11 5 -20 11 -20 5 0 7 6 4 13 -4 6 0 4 8 -6 11 -14
16 -15 21 -5 3 7 4 3 2 -9 -5 -27 0 -29 20 -8 9 8 23 15 31 15 14 0 14 -2 0
-18 -22 -24 -22 -39 -1 -18 23 24 37 19 20 -6 -23 -33 -21 -51 4 -38 11 6 18
15 15 20 -3 6 1 7 9 4 13 -5 13 -10 5 -27 -10 -18 -9 -20 2 -9 7 6 17 12 22
12 5 0 7 -6 4 -12 -2 -7 2 -27 10 -45 16 -40 16 -46 1 -36 -7 4 -5 -5 5 -20
10 -15 15 -32 12 -37 -3 -6 -1 -10 5 -10 6 0 8 -4 5 -10 -3 -5 -2 -10 3 -10 6
0 9 -7 8 -16 0 -9 7 -18 17 -19 21 -4 21 -5 1 44 -8 22 -22 42 -30 45 -8 3
-14 11 -14 18 0 7 13 -1 29 -18 29 -32 61 -50 61 -35 0 5 -5 11 -11 13 -6 2
-13 18 -15 36 -2 18 -8 41 -14 52 -19 36 -10 45 11 11 15 -25 23 -31 29 -21 4
7 13 9 20 5 9 -5 11 -4 6 4 -4 6 -14 10 -21 9 -8 -2 -14 2 -13 7 0 6 4 9 9 8
4 -2 6 4 3 12 -4 8 -10 12 -15 9 -5 -3 -9 2 -9 10 0 9 -5 16 -10 16 -6 0 -22
11 -36 25 -14 14 -31 25 -39 25 -8 0 -15 4 -15 8 0 5 -12 14 -26 21 -14 6 -43
25 -65 43 -49 39 -121 53 -144 28z m115 -27 c13 -13 11 -14 -15 -9 -50 8 -75
18 -75 28 0 13 72 -2 90 -19z"/>
<path d="M5932 5099 c9 -6 8 -13 -6 -27 -17 -19 -16 -21 5 -41 12 -11 26 -18
31 -15 4 3 8 0 8 -6 0 -6 8 -10 18 -9 34 3 44 -1 39 -16 -4 -8 -2 -17 3 -20 6
-4 10 -1 10 4 0 6 5 11 11 11 5 0 8 -4 5 -8 -2 -4 0 -14 5 -22 7 -12 11 -12
17 -2 12 18 33 12 57 -17 16 -20 20 -40 20 -102 0 -42 3 -75 7 -73 3 2 8 1 11
-3 2 -5 2 -2 1 5 -2 6 2 12 8 12 6 0 7 5 1 13 -5 6 -6 30 -3 52 l5 40 19 -25
c11 -15 16 -18 12 -7 -5 15 -3 16 14 7 11 -6 20 -14 21 -18 3 -30 11 -67 14
-71 3 -2 8 4 11 14 4 10 1 21 -7 26 -10 6 -10 9 -1 9 6 0 12 10 12 22 0 12 3
18 7 15 8 -9 34 64 27 75 -3 5 -12 3 -21 -3 -11 -10 -16 -10 -22 0 -4 6 -12
11 -17 10 -23 -4 -36 2 -30 16 3 8 1 15 -4 15 -8 0 -26 -57 -22 -73 1 -4 -7
-3 -18 3 -25 13 -28 42 -3 33 11 -4 14 -3 9 5 -4 7 0 22 8 34 23 32 20 40 -11
34 -16 -3 -35 -1 -43 4 -13 10 -13 11 0 9 34 -3 60 2 60 12 0 7 -10 9 -25 5
-18 -5 -25 -2 -25 7 0 8 -27 24 -62 36 -35 12 -70 25 -78 28 -22 9 -92 11 -78
2z m28 -34 c-10 -12 -10 -15 2 -15 8 0 18 3 24 8 5 4 4 1 -2 -7 -9 -10 -19
-11 -41 -3 -17 6 -21 11 -10 11 9 1 17 6 17 11 0 6 5 10 11 10 8 0 8 -5 -1
-15z"/>
<path d="M6475 5043 c25 -23 85 -63 85 -57 0 4 -8 13 -17 21 -22 16 -82 49
-68 36z"/>
<path d="M5725 5002 c-25 -21 -54 -58 -39 -49 7 4 14 0 18 -8 7 -19 26 -19 26
0 0 8 -5 15 -12 15 -6 0 -1 11 12 25 27 29 24 41 -5 17z"/>
<path d="M4607 4967 c-3 -9 -2 -17 2 -17 15 0 21 -31 10 -53 -9 -19 -7 -18 10
3 11 14 16 27 11 28 -6 2 -10 10 -10 18 0 8 6 11 17 7 11 -4 14 -3 9 6 -5 7
-14 10 -21 7 -8 -3 -15 0 -18 7 -2 6 -6 4 -10 -6z"/>
<path d="M5820 4945 c-1 -11 -4 -15 -7 -7 -8 21 -23 13 -23 -12 0 -13 6 -27
13 -29 9 -4 9 -6 -1 -6 -7 -1 -20 6 -28 14 -9 8 -20 15 -25 15 -5 0 0 -9 11
-20 11 -11 25 -20 30 -20 6 0 19 -20 30 -44 10 -25 28 -50 39 -56 25 -13 28
-2 5 14 -8 7 -17 23 -19 36 -17 103 -23 132 -25 115z"/>
<path d="M5719 4897 c6 -8 8 -17 4 -21 -4 -4 0 -4 9 -1 11 4 18 0 22 -13 4
-11 13 -23 21 -26 8 -3 15 -10 15 -16 0 -6 -4 -8 -10 -5 -5 3 -10 2 -10 -4 0
-5 9 -9 20 -8 18 1 19 3 3 27 -22 35 -65 80 -76 80 -5 0 -4 -6 2 -13z"/>
<path d="M4126 4830 c-63 -68 -77 -90 -56 -90 6 0 10 6 10 14 0 8 4 16 9 18
14 5 114 118 109 124 -3 2 -35 -27 -72 -66z"/>
<path d="M5868 4874 c18 -13 21 -19 11 -30 -8 -10 -8 -14 -1 -14 6 0 16 8 21
19 8 15 6 20 -15 30 -35 16 -42 14 -16 -5z"/>
<path d="M5054 4738 c-4 -7 -3 -8 4 -4 6 4 20 -2 32 -14 24 -24 24 -24 3 -46
-17 -17 -17 -18 0 -11 13 5 17 1 18 -21 0 -24 1 -25 8 -7 5 11 4 25 -1 32 -5
7 -7 17 -3 23 4 6 -4 22 -17 35 -26 28 -34 30 -44 13z"/>
<path d="M4720 4691 c0 -12 40 -51 52 -51 16 0 7 15 -23 38 -16 13 -29 19 -29
13z"/>
<path d="M6060 4681 c0 -6 12 -14 26 -17 14 -4 23 -12 21 -19 -3 -6 12 -29 34
-50 46 -44 53 -35 8 13 -16 17 -28 36 -25 41 5 7 -9 16 -56 39 -5 2 -8 -1 -8
-7z"/>
<path d="M4560 4601 c0 -16 49 -61 68 -61 8 0 13 1 11 3 -2 1 -21 18 -42 36
-20 19 -37 29 -37 22z"/>
<path d="M6532 4460 c-23 -22 -29 -40 -12 -40 6 0 10 4 10 9 0 5 7 17 16 26
24 24 11 28 -14 5z"/>
<path d="M6544 4075 c-4 -8 -4 -21 -1 -29 3 -7 1 -18 -3 -22 -11 -11 -2 -54
11 -54 5 0 9 27 9 60 0 59 -5 74 -16 45z"/>
<path d="M2110 2346 c-19 -7 -50 -27 -69 -45 -37 -34 -51 -39 -51 -16 0 14 -4
14 -32 -1 -44 -22 -45 -23 -28 -35 12 -9 12 -10 -2 -5 -20 6 -38 -20 -38 -53
0 -28 29 -112 44 -126 7 -7 22 -16 35 -20 18 -5 21 -12 17 -30 -8 -30 9 -75
27 -75 8 0 18 -21 25 -51 15 -62 15 -72 2 -64 -5 3 -10 -1 -10 -10 0 -9 5 -13
10 -10 6 3 10 1 10 -4 0 -6 -4 -11 -10 -11 -5 0 -10 -7 -10 -15 0 -8 5 -15 11
-15 5 0 8 -4 5 -8 -3 -5 11 -100 30 -213 19 -112 35 -216 37 -231 2 -32 -2
-31 98 -28 54 1 91 -4 133 -19 56 -19 60 -20 87 -4 36 21 36 31 4 43 -14 5
-25 16 -25 25 0 8 -6 15 -13 15 -21 0 -58 -31 -51 -42 4 -7 2 -8 -4 -4 -19 11
-14 32 10 48 21 14 21 15 -40 77 -69 70 -51 75 32 10 l48 -39 29 21 c43 30 44
39 13 64 -64 50 -184 175 -184 191 0 14 4 13 20 -6 l20 -23 0 36 c0 26 4 37
15 37 18 0 20 -17 3 -22 -7 -3 -8 -7 -2 -10 5 -4 18 0 29 8 18 14 18 14 0 28
-10 7 -28 11 -39 8 -18 -5 -19 -3 -8 11 12 14 10 19 -12 38 -27 24 -35 45 -13
36 9 -3 11 8 8 42 l-3 46 23 -25 c13 -14 21 -27 16 -28 -4 -2 -4 -8 -1 -14 3
-5 14 -2 25 8 18 17 18 18 -21 51 -46 39 -51 57 -15 51 14 -3 30 1 36 8 8 10
3 12 -28 9 l-38 -3 -2 54 -1 54 18 -23 c12 -15 17 -32 13 -45 -4 -16 -1 -22
11 -22 10 0 14 5 11 10 -3 6 0 17 9 25 9 9 17 11 21 5 3 -5 2 -10 -4 -10 -22
0 1 -26 25 -28 22 -2 24 0 13 20 -6 11 -34 43 -63 69 -30 28 -45 49 -36 49 9
0 23 -8 32 -17 27 -29 46 -43 59 -43 7 0 10 3 7 6 -4 3 2 14 12 24 9 9 20 24
23 31 5 14 5 14 50 -46 9 -11 18 -18 21 -15 3 3 -6 19 -19 34 -30 34 -31 43
-7 49 9 3 -18 5 -60 6 -125 2 -96 22 47 34 34 3 31 4 -15 6 -30 1 -49 5 -42 8
6 2 12 11 12 19 0 11 15 14 63 13 114 -1 168 -13 192 -42 27 -35 36 -34 24 3
-8 23 -20 32 -50 40 -23 6 -37 15 -33 21 3 6 -2 10 -12 9 -33 -4 -54 0 -54 9
0 12 29 22 42 15 22 -14 77 -11 83 4 3 9 0 12 -8 9 -7 -3 -21 1 -32 9 -10 8
-36 14 -57 14 -21 0 -38 4 -38 10 0 5 -10 14 -22 21 -18 10 -20 9 -15 -5 8
-20 -11 -29 -45 -24 l-23 5 25 10 c22 9 17 11 -40 16 -161 15 -256 16 -290 3z
m203 -843 c-5 -15 -3 -16 8 -5 7 6 22 12 33 12 18 0 19 -1 1 -20 -10 -11 -24
-20 -30 -20 -15 0 -28 28 -19 41 9 15 14 10 7 -8z"/>
<path d="M2775 2220 c3 -6 1 -26 -6 -44 -11 -31 -15 -34 -33 -24 -18 10 -19 9
-9 -4 10 -11 9 -19 -3 -36 -22 -31 -6 -27 20 5 17 21 56 90 56 99 0 1 -7 5
-16 8 -8 3 -12 2 -9 -4z"/>
<path d="M2415 2080 c5 -8 1 -18 -10 -26 -10 -8 -15 -17 -10 -21 4 -5 10 -2
12 5 4 9 9 10 17 2 10 -7 13 -4 12 17 -1 14 -7 28 -15 31 -9 3 -11 0 -6 -8z"/>
<path d="M2404 1963 c3 -3 -4 -20 -16 -37 l-22 -31 30 25 c16 14 33 28 37 31
5 3 -1 9 -13 12 -12 3 -19 3 -16 0z"/>
<path d="M2342 1661 l-43 -36 30 -18 c29 -17 59 -14 73 7 5 7 8 6 8 -2 0 -8
-9 -16 -20 -19 -11 -3 -20 -9 -20 -14 0 -17 25 -9 54 17 27 24 28 27 12 36 -9
5 -25 22 -34 38 l-18 28 -42 -37z"/>
<path d="M2474 1578 c3 -13 6 -29 6 -35 0 -7 7 -13 15 -13 19 0 19 4 0 40 -18
35 -30 39 -21 8z"/>
<path d="M2425 1560 c-14 -16 -16 -23 -7 -32 7 -7 12 -8 12 -3 0 5 7 0 15 -11
13 -18 14 -16 15 24 0 47 -8 52 -35 22z"/>
<path d="M2530 1465 c-13 -14 -21 -27 -18 -30 2 -3 17 9 33 25 16 17 24 30 19
30 -6 0 -21 -11 -34 -25z"/>
<path d="M2445 1390 l-35 -28 25 -16 c25 -16 25 -16 25 12 0 42 12 47 24 10
13 -36 26 -44 47 -26 13 11 10 17 -18 45 l-33 31 -35 -28z"/>
<path d="M2537 1297 c-15 -13 -24 -26 -21 -30 4 -4 13 1 19 10 12 16 14 16 30
-1 22 -22 39 -2 22 26 -15 22 -16 22 -50 -5z"/>
<path d="M2459 1233 c-12 -15 -12 -16 3 -10 10 3 21 1 25 -7 9 -15 46 -36 65
-36 7 0 1 8 -12 17 -14 9 -32 25 -41 35 -20 22 -23 22 -40 1z"/>
<path d="M2615 1220 c-3 -5 -6 -52 -6 -103 0 -117 -8 -132 -67 -122 -26 4 -42
12 -42 21 0 8 -9 14 -19 14 -30 0 -51 11 -51 26 0 8 -9 14 -20 14 -12 0 -31 7
-44 15 -13 9 -39 17 -57 20 -19 2 -61 10 -94 18 -33 7 -76 12 -96 9 -50 -6
-150 15 -164 34 -10 15 -13 13 -23 -12 -16 -43 -32 -130 -32 -178 0 -24 -9
-69 -20 -101 -11 -32 -20 -68 -20 -79 -1 -26 -14 -43 -63 -80 -78 -58 -95
-126 -58 -228 11 -29 19 -76 19 -103 0 -52 15 -87 72 -170 17 -24 30 -60 34
-89 3 -26 16 -66 28 -87 l22 -39 348 0 348 0 0 53 c0 73 11 128 24 125 6 -2
22 9 36 23 68 70 18 93 -225 102 -22 0 -42 4 -45 7 -16 17 -50 29 -55 19 -4
-5 -12 -8 -18 -6 -7 2 -23 -5 -37 -15 -24 -19 -25 -19 -29 -2 -2 12 11 30 35
51 68 57 96 66 225 67 116 1 117 1 155 -29 38 -30 104 -46 104 -25 0 5 -6 7
-14 4 -8 -3 -17 -1 -21 5 -3 6 -1 11 5 11 7 0 20 10 31 23 20 24 25 42 9 32
-5 -3 -10 -1 -10 5 0 7 -7 10 -15 6 -9 -3 -15 0 -15 10 0 8 -4 13 -9 10 -5 -4
-11 -1 -13 4 -2 8 -18 8 -51 0 -78 -17 -145 -21 -153 -8 -5 7 0 9 13 6 12 -3
27 -1 34 4 10 6 1 8 -26 7 -27 -2 -52 5 -75 20 -21 13 -44 19 -58 16 -14 -3
-33 3 -52 17 -17 12 -46 23 -66 24 -20 0 -40 7 -45 15 -7 11 -9 11 -9 -3 0
-10 -4 -18 -10 -18 -19 0 -10 26 18 52 62 58 64 58 242 58 106 -1 178 -5 200
-13 32 -12 38 -11 56 7 35 34 40 50 16 44 -14 -4 -19 -2 -16 7 5 12 -33 25
-84 29 -13 1 -27 8 -31 15 -5 7 -19 12 -32 10 -29 -3 -97 10 -123 23 -10 6
-49 15 -85 20 -36 5 -77 11 -91 14 -14 2 -35 6 -48 7 -12 2 -28 9 -34 15 -7 7
-20 12 -30 12 -10 0 -18 4 -18 9 0 15 -47 22 -74 11 -36 -13 -33 2 9 48 20 22
51 44 73 50 53 16 259 15 354 -2 74 -13 180 -59 222 -95 31 -27 58 -91 51
-119 -6 -23 -5 -24 10 -12 9 8 15 23 13 35 -3 12 1 26 8 33 7 7 16 29 19 49 4
21 10 47 14 58 5 11 13 39 18 63 10 40 8 46 -13 67 -13 13 -24 31 -24 40 0 8
-4 15 -8 15 -5 0 -15 11 -22 25 -7 13 -17 22 -21 19 -5 -3 -6 1 -3 9 3 9 -3
17 -19 20 -13 4 -34 16 -47 27 -26 22 -65 27 -74 8 -5 -10 -7 -10 -12 0 -7 14
-21 16 -29 2z"/>
<path d="M5057 962 c-23 -25 -31 -72 -17 -106 10 -27 12 -28 27 -13 11 10 18
39 21 77 5 63 -3 73 -31 42z"/>
<path d="M5378 969 c-13 -7 -18 -23 -18 -54 0 -112 49 -94 63 23 5 45 -7 54
-45 31z"/>
<path d="M5570 959 c0 -15 -7 -32 -15 -39 -13 -11 -14 -10 -10 2 10 24 -23 30
-36 7 -8 -16 -7 -26 6 -45 9 -14 21 -24 27 -22 18 6 47 93 37 109 -6 10 -9 7
-9 -12z"/>
<path d="M5446 962 c-9 -9 -7 -56 4 -72 9 -13 11 -13 20 0 5 8 10 20 10 27 0
6 3 18 6 26 5 14 -29 31 -40 19z"/>
<path d="M5110 925 c-12 -36 -5 -95 10 -95 14 0 31 76 24 105 -9 35 -20 31
-34 -10z"/>
<path d="M5618 943 c-20 -5 -41 -53 -36 -84 4 -29 28 -38 28 -10 0 12 6 21 15
21 8 0 12 6 9 14 -3 7 2 16 10 19 10 4 13 1 9 -9 -3 -7 -1 -14 5 -14 14 0 19
19 14 47 -4 22 -17 26 -54 16z"/>
<path d="M5177 911 c-15 -26 -16 -36 -6 -75 10 -41 9 -49 -10 -78 l-20 -33 6
38 c4 29 2 37 -10 37 -16 0 -37 -48 -37 -86 0 -15 6 -24 15 -24 8 0 15 7 15
15 0 8 5 15 10 15 6 0 10 -11 10 -24 0 -30 16 -42 35 -26 19 16 19 1 -1 -38
-17 -35 -12 -54 12 -45 36 14 59 105 28 117 -8 3 -12 10 -9 16 4 6 1 26 -5 45
-9 28 -9 39 4 57 20 29 22 98 2 98 -8 0 -16 5 -18 10 -2 6 -11 -3 -21 -19z"/>
<path d="M5322 928 c-21 -28 -25 -78 -6 -99 17 -19 19 -19 25 -2 11 26 11 113
0 113 -5 0 -13 -6 -19 -12z"/>
<path d="M4994 886 c-10 -27 1 -71 19 -74 12 -3 17 3 17 22 0 14 -4 27 -10 31
-5 3 -7 12 -3 20 3 8 0 15 -6 15 -7 0 -14 -6 -17 -14z"/>
<path d="M5475 840 c-7 -22 -20 -26 -30 -10 -18 29 -70 -6 -63 -42 2 -7 -5
-13 -14 -13 -9 0 -20 -4 -24 -8 -13 -13 -24 -7 -24 13 0 11 -6 20 -13 20 -8 0
-19 12 -26 27 -11 24 -13 25 -28 10 -20 -19 -19 -103 1 -126 7 -9 16 -24 20
-35 5 -14 9 -16 20 -7 10 9 16 8 26 -4 19 -23 30 -18 46 20 15 38 23 42 42 23
16 -16 44 19 36 45 -3 9 -2 17 2 17 4 0 13 -8 21 -17 13 -17 14 -16 10 5 -4
17 -1 22 14 22 25 0 35 25 21 56 -14 29 -28 31 -37 4z"/>
<path d="M5684 808 c-4 -6 -2 -14 4 -16 6 -2 8 -10 5 -18 -3 -8 0 -14 6 -14 6
0 11 3 11 8 0 4 3 17 6 30 5 16 2 22 -9 22 -9 0 -19 -5 -23 -12z"/>
<path d="M5052 771 c-16 -52 -15 -82 2 -75 18 7 36 49 36 84 0 43 -25 37 -38
-9z"/>
<path d="M5645 779 c-8 -24 10 -65 33 -74 17 -6 40 11 28 22 -4 4 -11 2 -15
-5 -5 -9 -11 -5 -20 14 -8 18 -8 30 -1 39 5 6 7 15 3 18 -12 12 -22 7 -28 -14z"/>
<path d="M4942 759 c-13 -16 -19 -29 -14 -29 14 0 52 36 52 49 0 18 -14 12
-38 -20z"/>
<path d="M5563 782 c-17 -10 -25 -54 -13 -72 8 -13 14 -10 35 15 13 17 24 37
24 45 0 10 -2 11 -6 3 -6 -18 -21 -16 -25 2 -2 8 -8 11 -15 7z"/>
<path d="M4990 724 c-6 -15 -14 -22 -22 -18 -8 5 -9 2 -5 -10 5 -14 3 -16 -12
-11 -23 7 -71 -14 -71 -31 0 -7 -3 -19 -6 -28 -10 -25 23 -20 51 8 13 14 33
27 44 31 21 6 61 55 61 74 0 22 -31 10 -40 -15z"/>
<path d="M4827 683 c-17 -43 -7 -67 18 -42 19 19 25 70 9 76 -6 2 -18 -13 -27
-34z"/>
<path d="M5769 693 c-1 -4 -1 -12 0 -16 1 -5 -3 -6 -9 -2 -15 9 -47 -4 -55
-22 -5 -15 -3 -14 14 1 17 15 23 16 36 6 8 -7 12 -16 9 -21 -3 -5 0 -9 5 -9 6
0 11 3 12 8 0 4 2 17 3 30 2 20 -12 45 -15 25z"/>
<path d="M5566 648 c-17 -24 -21 -48 -8 -48 9 0 36 60 29 66 -3 3 -12 -5 -21
-18z"/>
<path d="M5721 641 c-8 -5 -20 -7 -26 -5 -17 7 -26 -19 -13 -37 7 -11 11 -11
15 -1 7 17 23 5 23 -19 0 -11 7 -19 16 -19 14 0 14 3 4 15 -7 9 -10 27 -6 45
6 33 6 33 -13 21z"/>
<path d="M6210 621 c0 -6 -7 -11 -15 -11 -9 0 -12 -6 -8 -16 3 -8 12 -13 20
-10 9 4 11 2 7 -6 -4 -6 1 -17 11 -25 11 -7 14 -13 9 -13 -6 0 -25 11 -44 25
-18 13 -38 21 -44 18 -27 -17 -100 -117 -111 -154 -9 -28 -19 -41 -75 -96 -85
-84 -174 -123 -282 -123 -67 0 -62 18 17 74 36 25 65 41 65 36 0 -6 5 -10 11
-10 8 0 8 4 0 14 -10 12 -9 20 3 38 12 19 14 35 7 77 -13 80 -54 94 -121 41
-21 -16 -44 -30 -52 -30 -32 0 -52 -28 -59 -81 -21 -164 -20 -158 -50 -164
-71 -16 -97 20 -73 100 19 67 10 84 -45 86 -20 1 -28 3 -18 6 14 4 16 8 6 19
-21 25 -35 -13 -38 -100 -2 -52 -7 -84 -17 -93 -8 -8 -19 -24 -25 -35 -8 -15
-13 -17 -19 -8 -5 8 -10 9 -14 2 -7 -12 -37 -5 -48 11 -8 13 -28 -58 -28 -100
0 -22 -5 -33 -14 -33 -24 0 -24 23 0 89 39 103 26 137 -34 95 -12 -8 -22 -10
-22 -5 0 6 -5 11 -11 11 -5 0 -7 -5 -3 -12 4 -7 3 -8 -4 -4 -7 4 -12 17 -12
30 0 12 -3 26 -7 30 -4 4 -8 15 -8 24 0 29 -41 26 -62 -5 -23 -34 -43 -99 -43
-142 0 -35 -37 -114 -70 -149 l-21 -22 56 0 c44 0 57 4 61 18 3 9 22 51 42 92
l37 75 3 -39 c5 -53 -3 -80 -33 -107 -33 -32 -31 -39 8 -39 26 0 36 6 44 23
l10 22 7 -22 c7 -22 13 -23 96 -23 l88 0 23 37 c13 20 24 32 27 25 2 -6 -4
-22 -13 -36 -16 -24 -16 -24 17 -22 18 1 38 5 45 9 6 4 13 1 16 -5 2 -7 8 -10
12 -6 10 9 -2 69 -19 91 -17 22 -50 12 -41 -12 5 -12 3 -13 -5 -4 -9 8 -9 20
0 47 6 20 14 36 17 36 3 0 16 -9 30 -20 29 -22 65 -25 111 -9 27 9 35 8 58
-10 19 -15 41 -21 79 -21 56 0 171 31 214 58 131 80 129 78 206 186 22 31 43
56 48 56 4 0 5 4 2 10 -7 12 10 47 38 78 23 25 57 30 57 8 0 -18 -48 -76 -63
-76 -7 0 -22 -15 -34 -33 -13 -18 -32 -43 -43 -55 -12 -12 -16 -22 -10 -22 5
0 10 -11 10 -24 0 -15 13 -37 33 -55 37 -36 33 -42 68 89 13 47 33 105 45 130
12 25 24 54 28 65 8 28 -7 108 -22 113 -6 2 -12 -1 -12 -7z m-520 -235 c0 -14
-58 -76 -72 -76 -16 0 7 43 36 65 37 29 36 29 36 11z"/>
<path d="M4791 583 c-13 -47 -14 -60 -1 -65 5 -1 7 -13 4 -25 -8 -29 -24 -20
-24 13 0 16 -6 24 -18 24 -10 0 -43 9 -75 20 -64 23 -112 27 -101 8 5 -7 2 -9
-9 -5 -9 3 -18 0 -21 -9 -3 -8 -14 -14 -25 -14 -13 0 -18 5 -15 14 7 18 -40
30 -65 16 -10 -5 -24 -23 -29 -40 -11 -30 -44 -42 -57 -20 -3 6 3 10 13 10 24
0 35 35 16 51 -19 15 -68 -2 -73 -27 -2 -10 -8 -23 -15 -27 -6 -5 -2 -7 12 -4
13 3 20 1 16 -5 -4 -6 -24 -8 -45 -5 -24 3 -39 1 -42 -7 -3 -7 -47 -11 -142
-11 l-139 0 -6 -25 c-10 -38 5 -221 21 -255 14 -30 14 -30 17 29 2 36 -1 62
-8 66 -6 4 -10 26 -8 51 l3 44 54 3 c43 3 52 0 48 -11 -3 -8 3 -22 14 -31 18
-15 22 -15 43 -1 13 9 26 25 29 35 4 16 13 20 44 19 l38 -1 -33 -9 c-26 -8
-32 -14 -30 -32 2 -14 -5 -25 -20 -33 -13 -6 -37 -24 -55 -40 -17 -16 -25 -20
-17 -10 12 15 12 20 3 23 -7 3 -13 11 -13 20 0 26 -31 9 -53 -29 -19 -31 -20
-41 -10 -67 6 -17 7 -29 2 -26 -9 6 -19 -27 -18 -60 0 -11 -1 -29 -3 -40 -2
-15 5 -21 37 -27 64 -12 125 0 137 28 13 29 4 54 -20 54 -15 0 -17 6 -14 37 4
32 32 80 32 56 0 -4 10 6 21 24 20 32 95 83 122 83 8 0 32 13 55 30 39 28 45
29 167 32 112 2 129 0 140 -16 10 -13 18 -15 32 -8 10 5 24 7 31 5 17 -6 41
15 55 47 9 22 18 180 11 180 -2 0 -8 -17 -13 -37z m-137 -79 c9 -3 16 -15 16
-25 0 -23 -38 -26 -46 -4 -4 8 -14 15 -23 16 -12 0 -12 2 4 9 25 11 30 11 49
4z"/>
<path d="M5355 590 c-10 -11 -16 -23 -13 -26 7 -6 48 27 48 38 0 14 -17 8 -35
-12z"/>
<path d="M5597 582 c-24 -25 -26 -31 -17 -64 18 -63 61 -58 79 8 16 58 -6 98
-29 53 -7 -11 -14 -18 -17 -15 -3 3 0 12 7 21 23 28 4 25 -23 -3z"/>
<path d="M5406 578 c-29 -24 -29 -48 -1 -48 17 0 37 35 33 57 -2 14 -8 12 -32
-9z"/>
<path d="M5807 530 c-17 -28 -15 -80 3 -80 5 0 6 10 2 22 -3 14 -2 19 6 14 7
-4 12 -16 12 -27 0 -22 22 -25 39 -5 14 17 5 43 -19 56 -13 7 -20 6 -23 -3 -2
-6 -7 -9 -11 -6 -4 4 0 14 8 22 21 21 56 10 56 -17 0 -16 2 -18 9 -7 6 9 5 23
-2 38 -15 34 -58 31 -80 -7z"/>
<path d="M5272 515 c-17 -37 -15 -57 6 -53 12 2 18 14 20 41 4 43 -9 49 -26
12z"/>
<path d="M5336 515 c-20 -30 -18 -60 4 -60 16 0 33 65 21 78 -4 4 -16 -4 -25
-18z"/>
<path d="M5418 498 c-20 -16 -30 -49 -19 -66 13 -21 41 13 41 49 0 33 0 33
-22 17z"/>
<path d="M5911 479 c-6 -18 -7 -38 -2 -47 4 -10 7 -22 5 -27 -3 -6 5 -11 16
-12 18 -2 19 0 5 14 -10 10 -15 29 -13 52 3 33 6 36 36 39 29 3 34 -1 47 -32
16 -39 31 -49 20 -15 -5 15 -4 19 4 15 20 -13 12 5 -11 25 -13 10 -39 18 -60
19 -31 0 -37 -4 -47 -31z"/>
<path d="M5280 425 c-13 -16 -6 -65 9 -65 12 0 33 59 25 71 -8 13 -20 11 -34
-6z"/>
<path d="M4565 356 c-27 -7 -60 -18 -72 -24 -12 -7 -30 -12 -41 -12 -10 0 -24
-11 -32 -24 -7 -13 -21 -27 -31 -29 -11 -3 -17 -1 -13 4 3 5 1 9 -4 9 -11 0
-31 -22 -29 -32 1 -3 -2 -10 -7 -15 -5 -5 -6 -2 -1 6 5 9 3 12 -6 9 -8 -3 -13
-11 -11 -18 4 -18 -21 -32 -30 -17 -12 19 -42 -6 -46 -38 -3 -20 0 -25 10 -19
16 10 -42 -64 -71 -90 -24 -22 -14 -36 28 -36 30 0 122 56 181 111 76 70 197
157 237 170 48 15 58 30 30 46 -26 15 -28 15 -92 -1z m-55 -75 c0 -8 -29 -35
-105 -100 -96 -81 -202 -137 -145 -76 13 14 31 25 41 25 10 0 27 16 39 38 36
62 170 152 170 113z"/>
<path d="M5910 325 c0 -22 3 -26 9 -15 6 8 7 18 4 24 -3 5 -1 6 4 3 6 -4 15
-1 21 6 8 9 4 12 -14 12 -20 0 -24 -5 -24 -30z"/>
<path d="M4372 338 c-18 -18 -14 -38 8 -38 16 0 40 26 40 44 0 11 -36 6 -48
-6z"/>
<path d="M5140 319 c-13 -9 -12 -10 3 -5 9 3 17 1 17 -4 0 -6 6 -10 14 -10 8
0 17 -6 19 -12 3 -7 6 -3 6 10 1 12 -3 22 -8 22 -5 0 -15 2 -23 5 -7 3 -20 0
-28 -6z"/>
<path d="M2724 264 c5 -17 3 -30 -4 -34 -18 -11 -3 -43 25 -57 30 -13 42 -1
19 21 -8 9 -13 20 -9 25 3 5 1 13 -5 16 -6 4 -8 15 -5 25 3 11 0 20 -11 24
-13 5 -15 2 -10 -20z"/>
<path d="M4880 269 c0 -6 -7 -9 -15 -5 -17 6 -21 -9 -5 -19 6 -3 9 -14 9 -23
-1 -15 -2 -15 -6 1 -2 9 -8 17 -13 17 -15 0 -21 -37 -19 -112 2 -79 18 -110
44 -88 8 7 15 17 15 22 0 6 -7 5 -15 -2 -13 -11 -15 -8 -15 13 0 14 5 29 11
33 6 3 9 19 7 34 -3 21 -1 26 13 23 20 -6 35 42 20 61 -6 7 -8 22 -4 34 4 16
1 22 -11 22 -9 0 -16 -5 -16 -11z"/>
<path d="M6014 255 l-29 -26 27 10 c33 12 59 -8 51 -39 -6 -23 -19 -26 -26 -7
-4 9 -8 9 -15 -2 -12 -16 -32 -6 -32 17 0 11 -3 13 -11 5 -14 -14 14 -59 43
-66 37 -10 58 9 58 54 0 25 -5 42 -14 45 -8 3 -12 12 -9 20 8 22 -11 17 -43
-11z"/>
<path d="M5253 249 c-13 -5 -23 -11 -23 -15 0 -3 7 -3 16 0 10 4 21 0 28 -10
11 -14 13 -14 25 -1 10 13 9 17 -6 25 -10 6 -27 6 -40 1z"/>
<path d="M3319 221 c7 -5 12 -14 9 -21 -3 -9 -8 -8 -21 4 -14 14 -20 15 -37 4
-11 -7 -20 -20 -20 -28 0 -9 -5 -21 -10 -26 -7 -7 -4 -25 10 -58 11 -26 20
-56 20 -66 0 -10 5 -22 11 -26 7 -4 10 16 7 65 -3 73 -1 80 20 59 9 -9 12 -8
12 5 0 9 -4 17 -10 17 -5 0 -10 7 -10 15 0 18 5 18 31 4 17 -9 19 -7 15 15 -6
33 -14 46 -29 46 -8 0 -7 -3 2 -9z"/>
<path d="M4617 141 c-13 -14 -15 -24 -8 -43 10 -28 0 -54 -33 -80 -20 -17 -18
-18 69 -18 l90 0 -25 20 c-21 16 -23 22 -12 37 31 45 36 63 21 79 -25 24 -81
27 -102 5z"/>
<path d="M4474 113 c-27 -20 -62 -52 -78 -70 l-29 -35 39 7 c99 18 175 75 158
120 -10 24 -38 17 -90 -22z"/>
<path d="M6056 111 c-31 -35 4 -111 50 -111 12 0 22 66 16 108 -4 28 -42 30
-66 3z"/>
<path d="M2895 44 c-22 -23 -14 -38 23 -42 36 -4 52 18 32 43 -16 19 -35 19
-55 -1z"/>
</g>
</svg>
